<mxfile host="app.diagrams.net" agent="Mozilla/5.0 (Windows NT 10.0; Win64; x64) AppleWebKit/537.36 (KHTML, like Gecko) Chrome/131.0.0.0 Safari/537.36" version="24.8.6">
  <diagram name="Страница — 1" id="3Zc2DEwEk-CGxHBB7cYI">
    <mxGraphModel dx="870" dy="577" grid="1" gridSize="10" guides="1" tooltips="1" connect="1" arrows="1" fold="1" page="1" pageScale="1" pageWidth="827" pageHeight="1169" math="0" shadow="0">
      <root>
        <mxCell id="0" />
        <mxCell id="1" parent="0" />
        <mxCell id="n8jfr7omEkxlo1GaMT8v-8" style="edgeStyle=orthogonalEdgeStyle;rounded=0;orthogonalLoop=1;jettySize=auto;html=1;exitX=0.5;exitY=1;exitDx=0;exitDy=0;entryX=0.5;entryY=0;entryDx=0;entryDy=0;" edge="1" parent="1" source="n8jfr7omEkxlo1GaMT8v-1" target="n8jfr7omEkxlo1GaMT8v-2">
          <mxGeometry relative="1" as="geometry" />
        </mxCell>
        <mxCell id="n8jfr7omEkxlo1GaMT8v-1" value="&lt;font style=&quot;font-size: 10px;&quot;&gt;Исток (начало рассмотрения процесса)&lt;/font&gt;" style="ellipse;whiteSpace=wrap;html=1;aspect=fixed;" vertex="1" parent="1">
          <mxGeometry x="235" y="100" width="90" height="90" as="geometry" />
        </mxCell>
        <mxCell id="n8jfr7omEkxlo1GaMT8v-15" style="rounded=0;orthogonalLoop=1;jettySize=auto;html=1;exitX=0.5;exitY=1;exitDx=0;exitDy=0;" edge="1" parent="1" source="n8jfr7omEkxlo1GaMT8v-2">
          <mxGeometry relative="1" as="geometry">
            <mxPoint x="340" y="340" as="targetPoint" />
          </mxGeometry>
        </mxCell>
        <mxCell id="n8jfr7omEkxlo1GaMT8v-2" value="&lt;font style=&quot;font-size: 10px;&quot;&gt;Исходная страница&lt;/font&gt;" style="ellipse;whiteSpace=wrap;html=1;aspect=fixed;" vertex="1" parent="1">
          <mxGeometry x="235" y="220" width="90" height="90" as="geometry" />
        </mxCell>
        <mxCell id="n8jfr7omEkxlo1GaMT8v-16" style="rounded=0;orthogonalLoop=1;jettySize=auto;html=1;exitX=0.5;exitY=1;exitDx=0;exitDy=0;" edge="1" parent="1" source="n8jfr7omEkxlo1GaMT8v-3">
          <mxGeometry relative="1" as="geometry">
            <mxPoint x="370" y="340" as="targetPoint" />
          </mxGeometry>
        </mxCell>
        <mxCell id="n8jfr7omEkxlo1GaMT8v-3" value="&lt;font style=&quot;font-size: 10px;&quot;&gt;Нажать&lt;/font&gt;&lt;div&gt;&lt;font style=&quot;font-size: 10px;&quot;&gt;&amp;nbsp;&quot;Выберите файл&quot;&lt;/font&gt;&lt;/div&gt;" style="ellipse;whiteSpace=wrap;html=1;aspect=fixed;" vertex="1" parent="1">
          <mxGeometry x="390" y="220" width="90" height="90" as="geometry" />
        </mxCell>
        <mxCell id="n8jfr7omEkxlo1GaMT8v-12" style="rounded=0;orthogonalLoop=1;jettySize=auto;html=1;exitX=0.5;exitY=1;exitDx=0;exitDy=0;" edge="1" parent="1" source="n8jfr7omEkxlo1GaMT8v-4">
          <mxGeometry relative="1" as="geometry">
            <mxPoint x="420" y="490" as="targetPoint" />
          </mxGeometry>
        </mxCell>
        <mxCell id="n8jfr7omEkxlo1GaMT8v-4" value="&lt;font style=&quot;font-size: 10px;&quot;&gt;Отображение гистограммы &quot;Суммарная&quot;&lt;/font&gt;" style="ellipse;whiteSpace=wrap;html=1;aspect=fixed;" vertex="1" parent="1">
          <mxGeometry x="310" y="370" width="90" height="90" as="geometry" />
        </mxCell>
        <mxCell id="n8jfr7omEkxlo1GaMT8v-13" style="rounded=0;orthogonalLoop=1;jettySize=auto;html=1;exitX=0.5;exitY=1;exitDx=0;exitDy=0;" edge="1" parent="1" source="n8jfr7omEkxlo1GaMT8v-5">
          <mxGeometry relative="1" as="geometry">
            <mxPoint x="440" y="490" as="targetPoint" />
          </mxGeometry>
        </mxCell>
        <mxCell id="n8jfr7omEkxlo1GaMT8v-5" value="&lt;font style=&quot;font-size: 10px;&quot;&gt;Нажать &quot;Все каналы&quot;&amp;nbsp;&lt;/font&gt;" style="ellipse;whiteSpace=wrap;html=1;aspect=fixed;" vertex="1" parent="1">
          <mxGeometry x="470" y="370" width="90" height="90" as="geometry" />
        </mxCell>
        <mxCell id="n8jfr7omEkxlo1GaMT8v-11" style="edgeStyle=orthogonalEdgeStyle;rounded=0;orthogonalLoop=1;jettySize=auto;html=1;exitX=0;exitY=0.5;exitDx=0;exitDy=0;entryX=1;entryY=0.5;entryDx=0;entryDy=0;" edge="1" parent="1" source="n8jfr7omEkxlo1GaMT8v-6" target="n8jfr7omEkxlo1GaMT8v-7">
          <mxGeometry relative="1" as="geometry" />
        </mxCell>
        <mxCell id="n8jfr7omEkxlo1GaMT8v-6" value="&lt;font style=&quot;font-size: 10px;&quot;&gt;Отображение гистограммы &quot;Все каналы&quot;&lt;/font&gt;" style="ellipse;whiteSpace=wrap;html=1;aspect=fixed;" vertex="1" parent="1">
          <mxGeometry x="390" y="510" width="90" height="90" as="geometry" />
        </mxCell>
        <mxCell id="n8jfr7omEkxlo1GaMT8v-7" value="&lt;font style=&quot;font-size: 10px;&quot;&gt;Сток (завершение рассмотрения процесса)&lt;/font&gt;" style="ellipse;whiteSpace=wrap;html=1;aspect=fixed;" vertex="1" parent="1">
          <mxGeometry x="250" y="510" width="90" height="90" as="geometry" />
        </mxCell>
        <mxCell id="n8jfr7omEkxlo1GaMT8v-9" value="" style="endArrow=none;html=1;rounded=0;jumpSize=5;strokeWidth=2;" edge="1" parent="1">
          <mxGeometry width="50" height="50" relative="1" as="geometry">
            <mxPoint x="332.5" y="340" as="sourcePoint" />
            <mxPoint x="377.5" y="340" as="targetPoint" />
          </mxGeometry>
        </mxCell>
        <mxCell id="n8jfr7omEkxlo1GaMT8v-10" value="" style="endArrow=none;html=1;rounded=0;jumpSize=5;strokeWidth=2;" edge="1" parent="1">
          <mxGeometry width="50" height="50" relative="1" as="geometry">
            <mxPoint x="414" y="490" as="sourcePoint" />
            <mxPoint x="459" y="490" as="targetPoint" />
          </mxGeometry>
        </mxCell>
        <mxCell id="n8jfr7omEkxlo1GaMT8v-14" value="" style="endArrow=classic;html=1;rounded=0;entryX=0.5;entryY=0;entryDx=0;entryDy=0;" edge="1" parent="1" target="n8jfr7omEkxlo1GaMT8v-6">
          <mxGeometry width="50" height="50" relative="1" as="geometry">
            <mxPoint x="430" y="490" as="sourcePoint" />
            <mxPoint x="360" y="420" as="targetPoint" />
          </mxGeometry>
        </mxCell>
        <mxCell id="n8jfr7omEkxlo1GaMT8v-17" value="" style="endArrow=classic;html=1;rounded=0;" edge="1" parent="1" target="n8jfr7omEkxlo1GaMT8v-4">
          <mxGeometry width="50" height="50" relative="1" as="geometry">
            <mxPoint x="360" y="340" as="sourcePoint" />
            <mxPoint x="440" y="290" as="targetPoint" />
          </mxGeometry>
        </mxCell>
        <mxCell id="n8jfr7omEkxlo1GaMT8v-18" value="" style="ellipse;whiteSpace=wrap;html=1;aspect=fixed;fillColor=#000000;" vertex="1" parent="1">
          <mxGeometry x="430" y="230" width="10" height="10" as="geometry" />
        </mxCell>
        <mxCell id="n8jfr7omEkxlo1GaMT8v-20" value="" style="triangle;whiteSpace=wrap;html=1;direction=south;fillColor=#000000;" vertex="1" parent="1">
          <mxGeometry x="275" y="110" width="10" height="10" as="geometry" />
        </mxCell>
        <mxCell id="n8jfr7omEkxlo1GaMT8v-22" value="" style="whiteSpace=wrap;html=1;aspect=fixed;fillColor=#000000;" vertex="1" parent="1">
          <mxGeometry x="275" y="230" width="10" height="10" as="geometry" />
        </mxCell>
        <mxCell id="n8jfr7omEkxlo1GaMT8v-23" value="" style="whiteSpace=wrap;html=1;aspect=fixed;fillColor=#000000;" vertex="1" parent="1">
          <mxGeometry x="350" y="380" width="10" height="10" as="geometry" />
        </mxCell>
        <mxCell id="n8jfr7omEkxlo1GaMT8v-24" value="" style="ellipse;whiteSpace=wrap;html=1;aspect=fixed;fillColor=#000000;" vertex="1" parent="1">
          <mxGeometry x="510" y="380" width="10" height="10" as="geometry" />
        </mxCell>
        <mxCell id="n8jfr7omEkxlo1GaMT8v-25" value="" style="whiteSpace=wrap;html=1;aspect=fixed;fillColor=#000000;" vertex="1" parent="1">
          <mxGeometry x="430" y="520" width="10" height="10" as="geometry" />
        </mxCell>
        <mxCell id="n8jfr7omEkxlo1GaMT8v-26" value="" style="triangle;whiteSpace=wrap;html=1;direction=north;fillColor=#000000;" vertex="1" parent="1">
          <mxGeometry x="290" y="520" width="10" height="10" as="geometry" />
        </mxCell>
      </root>
    </mxGraphModel>
  </diagram>
</mxfile>
